<?xml version="1.0" encoding="UTF-8"?>
<svg width="752pt" height="752pt" version="1.1" viewBox="0 0 752 752" xmlns="http://www.w3.org/2000/svg">
 <path d="m357.82 177.76c-50.414 4.6758-97.148 28.402-130.68 66.34-33.527 37.941-51.32 87.238-49.762 137.84 1.5625 50.605 22.363 98.715 58.164 134.52 35.801 35.801 83.906 56.602 134.52 58.164 50.605 1.5586 99.902-16.238 137.84-49.766 37.941-33.523 61.668-80.258 66.344-130.67 3.4727-38.887-4.5391-77.934-23.047-112.31-18.508-34.375-46.695-62.562-81.07-81.07-34.375-18.508-73.426-26.52-112.31-23.047zm-79.609 268.76c-5.7461 0-10.926-3.4648-13.125-8.7734s-0.98438-11.418 3.0781-15.48c4.0625-4.0664 10.176-5.2812 15.484-3.082 5.3086 2.1992 8.7695 7.3789 8.7695 13.125 0 7.8477-6.3594 14.211-14.207 14.211zm0-56.309v-0.003907c-5.7461 0-10.926-3.4609-13.125-8.7695s-0.98438-11.418 3.0781-15.48c4.0625-4.0664 10.176-5.2812 15.484-3.082 5.3086 2.1992 8.7695 7.3789 8.7695 13.125 0 7.8477-6.3594 14.207-14.207 14.207zm0-56.309v-0.003906c-5.7461 0-10.926-3.4609-13.125-8.7695s-0.98438-11.418 3.0781-15.484c4.0625-4.0625 10.176-5.2773 15.484-3.0781 5.3086 2.1992 8.7695 7.3789 8.7695 13.125 0 7.8477-6.3594 14.207-14.207 14.207zm100.87 112.62h-58.816c-7.8477 0-14.207-6.3633-14.207-14.211 0-7.8438 6.3594-14.207 14.207-14.207h58.816c7.8477 0 14.211 6.3633 14.211 14.207 0 7.8477-6.3633 14.211-14.211 14.211zm95.664 0h-18.23v18.422c0 5.2305-4.2422 9.4688-9.4727 9.4688-5.2305 0-9.4727-4.2383-9.4727-9.4688v-18.375h-18.562c-5.2305 0-9.4727-4.2422-9.4727-9.4727s4.2422-9.4727 9.4727-9.4727h18.562v-18.469c0-5.2305 4.2422-9.4727 9.4727-9.4727 5.2305 0 9.4727 4.2422 9.4727 9.4727v18.469h18.422c5.2305 0 9.4688 4.2422 9.4688 9.4727s-4.2383 9.4727-9.4688 9.4727zm-0.94531-56.312h-153.54c-7.8477 0-14.207-6.3594-14.207-14.207 0-7.8438 6.3594-14.207 14.207-14.207h153.54c7.8438 0 14.207 6.3633 14.207 14.207 0 7.8477-6.3633 14.207-14.207 14.207zm0-56.309h-153.54c-7.8477 0-14.207-6.3594-14.207-14.207 0-7.8438 6.3594-14.207 14.207-14.207h153.54c7.8438 0 14.207 6.3633 14.207 14.207 0 7.8477-6.3633 14.207-14.207 14.207z"/>
</svg>
